# xmcd CD database file
#
# Track frame offsets:
#	182
#	10650
#	24602
#	35527
#	45902
#	57205
#	72905
#	85185
#	96880
#	114707
#	130505
#	142855
#	158055
#	170662
#	182250
#	194727
#
# Disc length: 2760 seconds
#
# Revision: 3
# Processed by: cddbd v1.5.2PL0 Copyright (c) Steve Scherf et al.
# Submitted via: CDex 1.51
#
DISCID=c90ac610
DTITLE=Various Artist - C&A The Greatest Entertainers
DYEAR=1999
DGENRE=Swing
TTITLE0=Jim REEVES - Memories Are Made Of This
TTITLE1=Al MARTINO - Spanish Eyes
TTITLE2=Fred ASTAIRE - Let´s Face The Music And Dance
TTITLE3=Pat BOONE - Love Letters In The Sand
TTITLE4=Bing CROSBY - Swinging On A Star
TTITLE5=ENGELBERT - Please Release Me (Let me Go)
TTITLE6=Perry COMO - Magic Moments
TTITLE7=Paul ANKA - Put Your Head On My Shoulder
TTITLE8=Roger WHITTAKER - I Will Always Love You
TTITLE9=Marilyn MONROE - Diamonds Are A Girl´s Best Friend
TTITLE10=Sam COOKE - When I Fall In Love
TTITLE11=Tony CHRSTIE - Is This The Way To Amarillo
TTITLE12=Judy GARLAND - Over The Rainbow
TTITLE13=Fats DOMINO - Blueberry Hill
TTITLE14=Frank SINATRA - Saturday Night (Is The Loneliest Night Of The Week
TTITLE15=Nat ´King´ COLE - Unforgettable
EXTD=YEAR: 1999
EXTT0=
EXTT1=
EXTT2=
EXTT3=
EXTT4=
EXTT5=
EXTT6=
EXTT7=
EXTT8=
EXTT9=
EXTT10=
EXTT11=
EXTT12=
EXTT13=
EXTT14=
EXTT15=
PLAYORDER=
